<svg width="16" height="22" viewBox="0 0 16 22" fill="none" xmlns="http://www.w3.org/2000/svg">
<path d="M8.16699 10.3128C7.47632 10.3128 6.81394 10.0385 6.32556 9.55008C5.83719 9.06171 5.56282 8.39933 5.56282 7.70866C5.56282 7.01799 5.83719 6.35561 6.32556 5.86724C6.81394 5.37886 7.47632 5.10449 8.16699 5.10449C8.85766 5.10449 9.52004 5.37886 10.0084 5.86724C10.4968 6.35561 10.7712 7.01799 10.7712 7.70866C10.7712 8.05064 10.7038 8.38928 10.5729 8.70523C10.4421 9.02118 10.2502 9.30826 10.0084 9.55008C9.76659 9.7919 9.47951 9.98372 9.16356 10.1146C8.84761 10.2455 8.50897 10.3128 8.16699 10.3128ZM8.16699 0.416992C6.23312 0.416992 4.37845 1.18522 3.011 2.55267C1.64355 3.92012 0.87532 5.77479 0.87532 7.70866C0.87532 13.1774 8.16699 21.2503 8.16699 21.2503C8.16699 21.2503 15.4587 13.1774 15.4587 7.70866C15.4587 5.77479 14.6904 3.92012 13.323 2.55267C11.9555 1.18522 10.1009 0.416992 8.16699 0.416992Z" fill="#1E1E1E"/>
</svg>
