<svg width="20" height="20" viewBox="0 0 20 20" fill="none" xmlns="http://www.w3.org/2000/svg">
<path d="M4.22884 8.57357C5.72884 11.5215 8.14551 13.9381 11.0934 15.4381L13.3851 13.1465C13.6768 12.8548 14.083 12.7715 14.4476 12.8861C15.6143 13.2715 16.8643 13.4798 18.1663 13.4798C18.4426 13.4798 18.7076 13.5896 18.9029 13.7849C19.0983 13.9803 19.208 14.2452 19.208 14.5215V18.1673C19.208 18.4436 19.0983 18.7085 18.9029 18.9039C18.7076 19.0992 18.4426 19.209 18.1663 19.209C13.4698 19.209 8.96562 17.3433 5.64466 14.0223C2.3237 10.7014 0.458008 6.19719 0.458008 1.50065C0.458008 1.22438 0.567754 0.959432 0.763105 0.764081C0.958455 0.568731 1.22341 0.458984 1.49967 0.458984H5.14551C5.42177 0.458984 5.68673 0.568731 5.88208 0.764081C6.07743 0.959432 6.18717 1.22438 6.18717 1.50065C6.18717 2.80273 6.39551 4.05273 6.78092 5.2194C6.89551 5.58398 6.81217 5.99023 6.52051 6.2819L4.22884 8.57357Z" fill="#1E1E1E"/>
</svg>
